<svg width="781" height="528" viewBox="0 0 781 528" fill="none" xmlns="http://www.w3.org/2000/svg">
<rect width="12.9512" height="256.623" transform="matrix(0.659962 0.751299 -0.757748 0.652547 732.604 75.8549)" fill="#001F3C"/>
<path d="M763.516 57.9037L746.283 103.021L716 68.5465L763.516 57.9037Z" fill="#001F3C"/>
<rect width="12.9512" height="164.211" transform="matrix(0.659962 0.751299 -0.757748 0.652547 694.985 147.688)" fill="#FFB601"/>
<path d="M725.898 129.737L708.665 174.854L678.381 140.38L725.898 129.737Z" fill="#FFB601"/>
<rect width="12.9512" height="256.623" transform="matrix(-0.659962 0.751299 0.757748 0.652547 48.3964 75.8549)" fill="#001F3C"/>
<path d="M17.4841 57.9037L34.717 103.021L65.0002 68.5465L17.4841 57.9037Z" fill="#001F3C"/>
<rect width="12.9512" height="164.211" transform="matrix(-0.659962 0.751299 0.757748 0.652547 86.0146 147.688)" fill="#FFB601"/>
<path d="M55.1024 129.737L72.3354 174.854L102.619 140.38L55.1024 129.737Z" fill="#FFB601"/>
<path d="M100.164 291.858C90.0282 296.386 88.5611 302.111 89.0946 336.599L89.4947 363.896L97.8971 364.295L106.166 364.695V351.246V337.93H132.974H159.648L159.248 330.873L158.848 323.949L132.574 323.549L106.166 323.283V315.56C106.166 311.299 106.833 307.171 107.767 306.239C108.967 305.041 116.969 304.641 135.775 304.641H162.182V297.318V289.994H133.241C112.168 290.127 103.099 290.527 100.164 291.858Z" fill="#001C4F"/>
<path d="M178.187 309.701C175.119 311.166 172.452 314.095 170.451 317.957C167.65 323.283 167.384 325.28 167.917 337.264C168.584 353.11 170.718 357.903 179.254 362.031C184.322 364.561 186.722 364.694 203.927 364.295C225 363.762 227.934 362.83 232.869 355.64C235.803 351.379 236.203 349.115 236.603 336.731C237.004 320.486 235.27 315.427 227.668 310.367C223.4 307.57 221.666 307.304 202.994 307.304C186.456 307.304 182.054 307.704 178.187 309.701ZM218.198 323.283C220.332 325.413 220.866 327.677 220.866 335.799C220.866 349.514 220.332 349.914 202.327 349.914C192.991 349.914 187.523 349.381 186.456 348.316C185.522 347.384 184.855 342.457 184.855 335.799C184.855 321.019 185.389 320.62 202.327 320.62C213.797 320.62 215.931 321.019 218.198 323.283Z" fill="#001C4F"/>
<path d="M254.876 310.234C248.607 315.161 247.54 319.821 247.54 343.257V364.562H255.542H263.545V344.721C263.545 319.954 263.011 320.62 280.35 320.62H292.887V313.962V307.304H275.682C260.21 307.304 258.21 307.571 254.876 310.234Z" fill="#001C4F"/>
<path d="M307.557 309.701C299.955 313.43 298.221 318.223 297.955 334.868C297.554 354.042 300.622 359.901 312.225 363.097C319.027 364.961 360.906 365.094 361.039 363.23C361.173 362.431 361.306 360.966 361.306 359.901C361.306 358.836 361.173 356.439 361.039 354.708L360.906 351.379L338.9 350.98C318.894 350.58 316.893 350.314 315.026 347.917C310.625 342.192 311.425 341.925 339.033 341.925H365.174L364.64 331.539C364.107 319.555 361.973 314.495 355.704 310.367C351.437 307.571 349.836 307.305 331.698 307.305C315.826 307.305 311.425 307.704 307.557 309.701ZM346.769 323.55C351.036 329.542 350.103 329.941 331.564 329.941H314.226V326.612C314.226 321.819 317.56 320.753 331.831 320.62C343.701 320.62 344.901 320.887 346.769 323.55Z" fill="#001C4F"/>
<path d="M463.602 292.658V299.316H471.604H479.607V292.658V286H471.604H463.602V292.658Z" fill="#FFB601"/>
<path d="M569.499 290.793C568.565 294.255 569.899 362.032 570.966 362.964C571.366 363.363 579.502 363.63 583.236 363.363C584.437 363.23 584.97 357.638 585.237 342.192L585.637 321.286L600.308 320.887C620.981 320.354 620.18 319.555 620.714 344.189L621.114 363.896L629.25 363.497L637.252 362.964L636.718 342.192C636.185 317.425 634.985 313.963 625.515 309.702C620.314 307.438 617.113 307.172 602.975 307.571L586.437 307.971L586.037 297.984L585.637 287.997L578.035 287.598C570.699 287.198 570.299 287.331 569.499 290.793Z" fill="#FFB601"/>
<path d="M382.779 292.524C370.775 299.848 371.309 324.349 383.579 330.607C386.513 332.205 392.648 332.604 409.453 332.604C427.592 332.604 431.726 333.004 433.46 334.735C435.994 337.132 436.261 346.053 433.993 348.317C432.793 349.515 424.257 349.915 403.985 349.915H375.577V357.238V364.562H403.985C434.794 364.562 440.262 363.763 446.664 357.904C450.798 354.309 450.932 353.643 451.332 342.991C451.732 330.341 450.532 326.879 443.73 322.351C439.462 319.422 437.861 319.289 416.922 319.289C397.983 319.289 394.249 319.022 392.782 317.158C390.248 314.096 389.981 309.568 392.115 306.639C393.849 304.109 396.116 303.976 421.457 303.576L448.931 303.177V296.519V289.994H417.989C389.981 289.994 386.513 290.261 382.779 292.524Z" fill="#FFB601"/>
<path d="M652.99 299.981V307.305H648.322H643.654V313.963V320.62H648.188H652.723L653.256 336.2C653.923 359.901 656.724 363.097 677.397 364.296L689 364.828V358.037V351.246H681.131C669.795 351.246 668.994 350.048 668.994 333.803V320.62H678.997H689V313.963V307.305H678.997H668.994V299.981V292.658H660.992H652.99V299.981Z" fill="#FFB601"/>
<path d="M463.602 335.933V364.562H470.004C473.472 364.562 477.073 364.029 478.006 363.363C479.34 362.564 479.74 356.306 479.473 334.735L479.207 307.305H471.338H463.602V335.933Z" fill="#FFB601"/>
<path d="M500.546 310.101C492.544 314.362 489.876 321.819 490.543 337.398C491.077 351.379 492.944 355.108 501.079 359.901C504.947 362.165 508.015 362.564 523.219 362.564C540.557 362.564 540.824 362.564 541.358 365.76C541.758 367.624 541.091 369.755 539.49 371.353C537.223 373.616 534.822 373.883 517.618 373.883H498.279V379.875C498.279 383.203 498.679 385.867 499.346 385.867C501.746 386 538.023 386 542.025 386C544.959 385.867 547.893 384.535 551.361 381.339L556.295 376.812L556.695 342.058L557.096 307.305H531.355C508.148 307.438 505.081 307.704 500.546 310.101ZM540.958 335.267V349.915H526.954C513.616 349.915 512.683 349.781 509.348 346.452C506.281 343.39 506.014 342.325 506.548 333.669C507.215 321.153 508.015 320.62 526.553 320.62H540.958V335.267Z" fill="#FFB601"/>
<path d="M617.681 396C572.034 474.91 486.717 528 389 528C291.283 528 205.966 474.91 160.319 396H617.681ZM389 0C534.803 0 653 118.197 653 264H125C125 118.197 243.197 0 389 0Z" fill="#001C4F"/>
<path d="M607.22 396C562.524 469.731 481.516 519 389 519C296.484 519 215.476 469.731 170.78 396H607.22ZM389 9C529.833 9 644 123.167 644 264H134C134 123.167 248.167 9 389 9Z" fill="white"/>
<path d="M595.436 396C551.89 463.96 475.705 509 389 509C302.295 509 226.11 463.96 182.564 396H595.436ZM389 19C524.31 19 634 128.69 634 264H144C144 128.69 253.69 19 389 19Z" fill="url(#paint0_radial_44_797)"/>
<path d="M263.537 153.917C257.256 155.583 256 161 256 191C256 223.083 256.837 226 264.375 226C270.656 226 272.75 223.083 272.75 215.583C272.75 205.583 273.587 205.167 299.55 205.167C323 205.167 327.606 203.917 333.05 196C342.262 183.083 341.425 169.333 331.375 159.333C324.675 152.667 317.975 151 297.037 151.417C282.381 151.833 267.306 152.667 263.537 153.917ZM321.325 173.917C325.931 185.583 314.625 193.083 294.106 191.833C276.519 190.583 274.844 189.75 273.587 178.917C272.331 167.667 272.331 167.667 295.781 167.667C312.531 167.667 319.65 169.333 321.325 173.917Z" fill="url(#paint1_linear_44_797)"/>
<path d="M354.825 157.667C345.194 166.833 346.45 182.667 357.337 190.167C363.2 194.333 375.762 196.833 389.162 196.833C408.425 196.833 411.356 198.083 410.1 203.917C408.844 210.167 403.4 211.833 380.369 212.667C359.012 213.5 352.312 215.167 352.312 219.75C352.312 224.75 359.012 226 382.044 226C416.381 226 427.687 221.417 427.687 207.25C427.687 186.833 424.337 184.333 395.862 184.333C375.344 184.333 368.225 182.667 366.131 178.083C362.362 168.083 366.131 166.833 395.862 166.833C420.15 166.833 423.5 165.583 423.5 158.917C423.5 151.833 420.15 151 392.512 151C369.9 151 359.431 152.667 354.825 157.667Z" fill="url(#paint2_linear_44_797)"/>
<path d="M440.25 179.333C440.25 220.167 445.275 226 482.962 226C520.231 226 523.581 222.25 524 181C524 153.917 523.162 151 515.625 151C508.506 151 507.669 154.333 506.412 181L505.156 211.417H482.125H459.094L457.837 181C456.581 154.333 455.744 151 448.625 151C441.087 151 440.25 153.917 440.25 179.333Z" fill="url(#paint3_linear_44_797)"/>
<path d="M285.593 434.808L292.711 468.139L309.835 451.136L310.063 450.909L310.363 451.023L374.517 475.201L405.335 444.598L405.563 444.371L405.864 444.485L466.961 467.561L477.125 457.469L402.316 429.159L371.497 459.762L371.269 459.989L370.968 459.875L321.032 441.014L320.305 440.739L320.856 440.192L337.423 423.741L285.593 434.808Z" fill="white" stroke="black"/>
<path d="M428.787 70.8962L446.561 88.5461L396.625 107.408L365.579 76.5781L289.742 105.276L300.686 116.144L362.082 92.9531L393.129 123.783L457.582 99.4906L475.357 117.14L482.77 82.4231L428.787 70.8962Z" fill="#FFB601"/>
<defs>
<radialGradient id="paint0_radial_44_797" cx="0" cy="0" r="1" gradientUnits="userSpaceOnUse" gradientTransform="translate(389 247.5) rotate(90) scale(283)">
<stop stop-color="#0040B5"/>
<stop offset="1" stop-color="#001F3C"/>
</radialGradient>
<linearGradient id="paint1_linear_44_797" x1="339.467" y1="188.678" x2="256" y2="188.678" gradientUnits="userSpaceOnUse">
<stop stop-color="white"/>
<stop offset="1" stop-color="#999999"/>
</linearGradient>
<linearGradient id="paint2_linear_44_797" x1="427.687" y1="188.5" x2="348.322" y2="188.5" gradientUnits="userSpaceOnUse">
<stop stop-color="white"/>
<stop offset="1" stop-color="#999999"/>
</linearGradient>
<linearGradient id="paint3_linear_44_797" x1="524" y1="188.5" x2="440.25" y2="188.5" gradientUnits="userSpaceOnUse">
<stop stop-color="white"/>
<stop offset="1" stop-color="#999999"/>
</linearGradient>
</defs>
</svg>
