<svg width="630" height="454" viewBox="0 0 630 454" fill="none" xmlns="http://www.w3.org/2000/svg">
<g filter="url(#filter0_d_66_246)">
<path d="M625.734 15.2999L515.977 11.4749L549.937 42.919L427.435 139.519L348.457 66.3927L177.14 201.169L174 267.211L345.317 132.434L424.294 205.56L587.32 77.5319L621.006 108.966L625.734 15.2999Z" fill="white"/>
<path d="M625.209 15.7818L620.561 107.863L587.664 77.1646L587.353 76.8743L587.014 77.141L424.325 204.903L345.66 132.066L345.349 131.778L345.011 132.043L174.551 266.145L177.629 201.417L348.425 67.049L427.092 139.887L427.404 140.175L427.741 139.91L550.244 43.3102L550.706 42.9452L550.28 42.5503L517.308 12.0215L625.209 15.7818Z" stroke="#001F54"/>
</g>
<g filter="url(#filter1_d_66_246)">
<path d="M586.133 118.982L493.403 115.751L522.095 142.317L418.597 223.93L351.872 162.149L207.132 276.017L204.479 331.813L349.218 217.945L415.944 279.726L553.678 171.56L582.138 198.118L586.133 118.982Z" fill="url(#paint0_linear_66_246)"/>
<path d="M585.608 119.464L581.693 197.014L554.022 171.193L553.711 170.903L553.372 171.168L415.974 279.069L349.561 217.576L349.25 217.288L348.912 217.554L205.03 330.747L207.621 276.264L351.84 162.805L418.254 224.299L418.566 224.587L418.904 224.321L522.402 142.707L522.864 142.343L522.438 141.949L494.734 116.297L585.608 119.464Z" stroke="#FFB601"/>
</g>
<g filter="url(#filter2_d_66_246)">
<path d="M625.734 15.2999L515.977 11.4749L549.937 42.919L427.435 139.519L348.457 66.3927L177.14 201.169L174 267.211L345.317 132.434L424.294 205.56L587.32 77.5319L621.006 108.966L625.734 15.2999Z" fill="white"/>
<path d="M625.209 15.7818L620.561 107.863L587.664 77.1646L587.353 76.8743L587.014 77.141L424.325 204.903L345.66 132.066L345.349 131.778L345.011 132.043L174.551 266.145L177.629 201.417L348.425 67.049L427.092 139.887L427.404 140.175L427.741 139.91L550.244 43.3102L550.706 42.9452L550.28 42.5503L517.308 12.0215L625.209 15.7818Z" stroke="#001F54"/>
</g>
<g filter="url(#filter3_d_66_246)">
<path d="M586.133 118.982L493.403 115.751L522.095 142.317L418.597 223.93L351.872 162.149L207.132 276.017L204.479 331.813L349.218 217.945L415.944 279.726L553.678 171.56L582.138 198.118L586.133 118.982Z" fill="url(#paint1_linear_66_246)"/>
<path d="M585.608 119.464L581.693 197.014L554.022 171.193L553.711 170.903L553.372 171.168L415.974 279.069L349.561 217.576L349.25 217.288L348.912 217.554L205.03 330.747L207.621 276.264L351.84 162.805L418.254 224.299L418.566 224.587L418.904 224.321L522.402 142.707L522.864 142.343L522.438 141.949L494.734 116.297L585.608 119.464Z" stroke="#FFB601"/>
</g>
<g filter="url(#filter4_d_66_246)">
<path d="M42.666 396.538H96.1191L95.749 390.009L95.375 383.549L69.5664 383.157L43.1611 382.891L42.666 382.886V374.668C42.666 372.514 42.8344 370.389 43.123 368.676C43.2673 367.821 43.4439 367.057 43.6484 366.44C43.8465 365.843 44.0921 365.313 44.4131 364.993C44.6449 364.761 44.9891 364.594 45.3828 364.461C45.788 364.323 46.301 364.204 46.9209 364.098C48.1615 363.888 49.8841 363.724 52.1406 363.599C56.6571 363.349 63.3716 363.249 72.7744 363.249H98.6826V349.602H70.2441C59.7078 349.669 52.1827 349.801 46.9277 350.084C44.3001 350.225 42.249 350.403 40.6777 350.627C39.0978 350.852 38.0381 351.119 37.3711 351.422L37.3682 351.422L36.4561 351.845C34.3896 352.842 32.7562 353.919 31.4541 355.353C29.9696 356.988 28.8828 359.124 28.1133 362.221C26.6619 368.064 26.3625 377.202 26.5508 392.547L26.5947 395.699L26.9873 422.526L34.9209 422.904L42.666 423.279V396.538Z" fill="white" stroke="#001C4F"/>
<path d="M124.083 422.871C127.433 423.168 132.302 423.103 140.914 422.903V422.902C151.472 422.636 157.399 422.268 161.306 421.093C163.24 420.511 164.664 419.735 165.904 418.678C167.151 417.614 168.23 416.252 169.456 414.465L169.457 414.464C170.897 412.373 171.695 410.805 172.196 408.243C172.64 405.969 172.848 402.914 173.028 398.03L173.104 395.823C173.304 387.703 172.964 382.458 171.662 378.623C170.375 374.831 168.132 372.382 164.394 369.893C163.336 369.199 162.46 368.681 161.453 368.281C160.448 367.883 159.29 367.595 157.669 367.391C154.407 366.98 149.342 366.912 139.993 366.912C123.409 366.912 119.152 367.324 115.416 369.253L115.409 369.257L115.402 369.26C112.463 370.663 109.863 373.494 107.895 377.294L107.894 377.297L107.403 378.249C106.327 380.392 105.726 382.03 105.429 384.286C105.086 386.898 105.149 390.348 105.416 396.35V396.351C105.75 404.275 106.45 409.345 108.089 412.943C109.708 416.495 112.266 418.655 116.471 420.689L116.477 420.692C118.965 421.934 120.772 422.578 124.083 422.871ZM139.326 409.522C134.652 409.522 130.932 409.389 128.24 409.12C126.896 408.986 125.794 408.816 124.952 408.609C124.14 408.408 123.476 408.15 123.103 407.777C122.925 407.6 122.782 407.36 122.663 407.098C122.542 406.83 122.432 406.509 122.33 406.145C122.128 405.416 121.953 404.48 121.81 403.377C121.523 401.169 121.355 398.25 121.355 394.907C121.355 391.222 121.387 388.386 121.708 386.227C122.03 384.061 122.655 382.484 123.912 381.397C125.156 380.321 126.938 379.795 129.397 379.524C131.861 379.252 135.1 379.228 139.326 379.228C145.051 379.228 148.497 379.326 150.797 379.717C151.956 379.914 152.846 380.189 153.602 380.574C154.36 380.961 154.96 381.446 155.551 382.036C156.685 383.169 157.4 384.353 157.821 386.296C158.233 388.202 158.365 390.849 158.365 394.907C158.365 398.325 158.333 400.966 157.993 402.982C157.651 405.012 156.984 406.49 155.651 407.505C154.343 408.5 152.47 408.989 149.868 409.242C147.257 409.497 143.821 409.522 139.326 409.522Z" fill="white" stroke="#001C4F"/>
<path d="M200.045 423.169V403.829C200.045 397.649 200.011 393.024 200.233 389.582C200.455 386.158 200.932 383.794 202.034 382.205C203.167 380.574 204.892 379.848 207.342 379.515C209.773 379.185 213.037 379.228 217.35 379.228H229.387V366.912H212.682C204.933 366.912 200.605 366.98 197.797 367.373C196.403 367.569 195.404 367.842 194.561 368.217C193.717 368.592 193.005 369.08 192.188 369.733L192.185 369.735L191.622 370.188C190.347 371.245 189.327 372.303 188.503 373.559C187.562 374.993 186.86 376.71 186.345 379.021C185.309 383.668 185.04 390.635 185.04 402.365V423.169H200.045Z" fill="white" stroke="#001C4F"/>
<path d="M276.135 423.169C281.798 423.186 287.247 423.086 291.285 422.867C293.306 422.757 294.962 422.617 296.11 422.45C296.688 422.365 297.116 422.276 297.392 422.188C297.469 422.163 297.525 422.14 297.565 422.122C297.687 421.327 297.806 419.99 297.806 419.009C297.806 417.964 297.674 415.583 297.541 413.854L297.54 413.845V413.836L297.425 410.979L275.891 410.587H275.89C265.9 410.388 260.365 410.222 257.098 409.801C255.461 409.591 254.348 409.311 253.514 408.909C252.661 408.497 252.129 407.97 251.632 407.332L251.63 407.329C251.08 406.614 250.597 405.967 250.237 405.388C249.883 404.818 249.614 404.264 249.543 403.741C249.466 403.176 249.624 402.66 250.068 402.246C250.479 401.865 251.103 401.599 251.904 401.397C253.515 400.991 256.118 400.779 260.001 400.664C263.898 400.55 269.133 400.533 276.033 400.533H301.647L301.141 390.672V390.669C300.875 384.693 300.211 380.504 298.862 377.309C297.607 374.336 295.748 372.194 292.992 370.274L292.43 369.893C291.37 369.199 290.503 368.68 289.517 368.281C288.532 367.882 287.408 367.595 285.838 367.391C282.677 366.98 277.78 366.912 268.697 366.912C253.279 366.912 248.8 367.299 245.139 369.078L244.777 369.258L244.098 369.603C240.783 371.344 238.748 373.355 237.473 376.726C236.09 380.379 235.588 385.655 235.454 393.984V393.986L235.428 395.744C235.345 404.334 236.061 409.976 238.034 413.856C240.112 417.94 243.624 420.144 249.358 421.723L249.357 421.724C250.995 422.173 254.829 422.529 259.729 422.775C264.604 423.02 270.472 423.153 276.135 423.169ZM250.726 385.72C250.726 384.469 250.943 383.388 251.559 382.496C252.176 381.602 253.147 380.964 254.518 380.502C257.224 379.59 261.71 379.294 268.826 379.228H268.831C274.745 379.228 278.072 379.292 280.148 379.703C281.203 379.912 281.972 380.217 282.606 380.669C283.236 381.118 283.7 381.689 284.176 382.368C284.711 383.119 285.173 383.795 285.531 384.398C285.886 384.996 286.156 385.552 286.285 386.061C286.416 386.578 286.412 387.09 286.16 387.552C285.913 388.006 285.473 388.325 284.913 388.561C283.812 389.024 282.006 389.261 279.386 389.392C276.744 389.524 273.197 389.549 268.564 389.549H250.726V385.72Z" fill="white" stroke="#001C4F"/>
</g>
<g filter="url(#filter5_d_66_246)">
<path d="M416.107 357.924V345.609H401.102V357.924H416.107Z" fill="url(#paint2_linear_66_246)" stroke="#FFB601"/>
<path d="M566.217 422.107V422.106L573.739 421.606L573.219 401.313V401.311C572.951 388.901 572.515 381.932 570.995 377.528C570.244 375.351 569.233 373.82 567.851 372.573C566.457 371.315 564.664 370.325 562.31 369.266C557.227 367.055 554.13 366.78 539.989 367.179H539.987L523.449 367.578L522.957 367.59L522.938 367.099L522.537 357.112L522.155 347.581L515.009 347.205H515.008C513.171 347.105 511.786 347.04 510.724 347.05C509.653 347.06 508.964 347.149 508.491 347.325C508.052 347.488 507.789 347.731 507.579 348.122C507.351 348.548 507.188 349.14 506.986 350.014L506.984 350.023L506.981 350.032L506.949 350.199C506.916 350.414 506.88 350.778 506.849 351.302C506.808 351.98 506.775 352.88 506.75 353.97C506.699 356.15 506.679 359.081 506.685 362.507C506.695 369.359 506.807 378.181 506.982 386.926C507.157 395.671 507.395 404.335 507.655 410.87C507.785 414.137 507.921 416.869 508.058 418.811C508.126 419.783 508.193 420.549 508.26 421.084C508.293 421.351 508.325 421.55 508.354 421.684C508.403 421.695 508.464 421.71 508.538 421.722C508.787 421.764 509.137 421.804 509.57 421.842C510.435 421.918 511.597 421.98 512.867 422.022C515.393 422.104 518.317 422.104 520.161 421.976C520.175 421.965 520.201 421.937 520.239 421.88C520.328 421.747 520.432 421.514 520.537 421.143C520.747 420.404 520.931 419.248 521.089 417.581C521.404 414.257 521.604 409.015 521.737 401.291V401.29L522.137 380.385L522.146 379.908L522.623 379.895L537.294 379.495H537.295C542.443 379.363 546.308 379.211 549.184 379.449C552.061 379.687 554.084 380.323 555.44 381.88C556.778 383.415 557.381 385.751 557.705 389.141C558.03 392.546 558.081 397.142 558.214 403.286V403.287L558.604 422.481L566.217 422.107Z" fill="url(#paint3_linear_66_246)" stroke="#FFB601"/>
<path d="M340.984 423.17C356.4 423.17 365.428 422.969 371.4 422.044C374.378 421.583 376.574 420.944 378.412 420.072C380.248 419.201 381.749 418.087 383.326 416.644L383.336 416.635C385.4 414.84 386.365 413.855 386.92 412.055C387.496 410.186 387.631 407.439 387.832 402.08C388.032 395.751 387.825 391.814 386.762 388.904C385.714 386.036 383.813 384.113 380.452 381.876L380.446 381.872C379.389 381.146 378.526 380.613 377.502 380.21C376.478 379.807 375.269 379.523 373.521 379.326C370.006 378.931 364.406 378.896 353.922 378.896C344.46 378.896 338.767 378.831 335.257 378.529C331.998 378.249 330.466 377.76 329.562 376.778L329.396 376.585C326.737 373.371 326.428 368.601 328.702 365.466V365.465C329.174 364.776 329.708 364.221 330.666 363.8C331.593 363.393 332.896 363.12 334.883 362.919C338.861 362.517 345.791 362.384 358.448 362.185H358.449L385.431 361.793V349.603H354.989C340.978 349.603 333.13 349.67 328.317 350.018C323.525 350.364 321.811 350.985 320.037 352.061C314.249 355.593 311.412 363.334 311.576 371.062C311.741 378.795 314.904 386.259 320.806 389.27H320.807L320.818 389.276C322.184 390.02 324.357 390.515 328.352 390.814C332.332 391.112 338.05 391.213 346.453 391.213C355.518 391.213 361.109 391.312 364.653 391.631C368.159 391.946 369.796 392.482 370.803 393.48L370.804 393.479C371.534 394.17 372.057 395.279 372.412 396.521C372.771 397.775 372.976 399.227 373.027 400.666C373.078 402.105 372.976 403.549 372.712 404.789C372.451 406.011 372.017 407.109 371.347 407.778C371.111 408.014 370.753 408.181 370.345 408.313C369.923 408.45 369.384 408.569 368.729 408.674C367.416 408.884 365.582 409.048 363.167 409.173C358.335 409.423 351.121 409.522 340.984 409.522H313.076V423.17H340.984Z" fill="url(#paint4_linear_66_246)" stroke="#FFB601"/>
<path d="M625.5 410.854H618.131C615.302 410.854 613.074 410.782 611.345 410.402C609.594 410.018 608.302 409.309 607.401 408.01C606.518 406.738 606.054 404.961 605.799 402.542C605.544 400.115 605.494 396.969 605.494 392.911V379.228H625.5V366.913H605.494V352.266H590.49V366.913H581.154V379.228H590.206L590.223 379.712L590.756 395.291V395.294C590.923 401.217 591.222 405.827 591.894 409.437C592.565 413.046 593.601 415.607 595.203 417.469C596.8 419.324 599.006 420.536 602.124 421.358C605.252 422.183 609.261 422.605 614.425 422.904L614.424 422.905L625.5 423.414V410.854Z" fill="url(#paint5_linear_66_246)" stroke="#FFB601"/>
<path d="M407.003 423.17C408.714 423.17 410.457 423.039 411.881 422.826C412.594 422.72 413.219 422.594 413.717 422.457C414.23 422.316 414.559 422.177 414.716 422.065L414.732 422.053L414.75 422.043C414.798 422.014 414.896 421.926 415.012 421.682C415.127 421.441 415.24 421.089 415.346 420.591C415.559 419.594 415.724 418.094 415.84 415.92C416.073 411.578 416.107 404.636 415.973 393.85V393.848L415.711 366.913H401.102V423.17H407.003Z" fill="url(#paint6_linear_66_246)" stroke="#FFB601"/>
<path d="M479.015 444.608C481.789 444.479 484.613 443.221 488.022 440.08V440.079L492.797 435.698L493.196 401.161L493.589 366.913H468.358C456.747 366.979 450.202 367.08 445.994 367.461C441.816 367.838 439.981 368.488 437.78 369.651H437.781C433.883 371.727 431.302 374.563 429.763 378.785C428.31 382.77 427.777 388.011 427.99 395.052L428.042 396.485V396.487C428.309 403.478 428.91 407.813 430.413 410.99C431.9 414.135 434.299 416.202 438.333 418.579L438.333 418.58C442.06 420.761 444.98 421.172 460.219 421.172C464.551 421.172 467.825 421.172 470.303 421.222C472.774 421.272 474.484 421.373 475.675 421.58C476.861 421.786 477.636 422.113 478.123 422.703C478.593 423.274 478.721 424.016 478.85 424.787C479.28 426.833 478.541 429.12 476.843 430.815C476.243 431.414 475.616 431.898 474.73 432.272C473.855 432.642 472.752 432.895 471.212 433.072C468.143 433.425 463.208 433.491 454.618 433.491H435.779V438.983C435.779 440.632 435.878 442.099 436.055 443.143C436.144 443.67 436.249 444.061 436.356 444.307C436.393 444.392 436.425 444.446 436.448 444.478C439.419 444.607 474.989 444.608 479.015 444.608ZM463.954 409.523C457.31 409.523 453.681 409.492 451.304 409.031C450.096 408.797 449.189 408.448 448.364 407.929C447.548 407.417 446.83 406.749 445.995 405.915C444.445 404.367 443.525 403.25 443.11 401.375C442.758 399.787 442.772 397.669 442.958 394.28L443.048 392.747C443.214 389.63 443.39 387.201 443.863 385.336C444.341 383.447 445.137 382.079 446.575 381.14C447.982 380.222 449.944 379.757 452.655 379.509C455.374 379.261 458.923 379.228 463.553 379.228H478.458V409.523H463.954Z" fill="url(#paint7_linear_66_246)" stroke="#FFB601"/>
</g>
<g filter="url(#filter6_d_66_246)">
<path d="M7.67871 326.608C8.99015 326.608 9.72086 326.302 10.1582 325.743C10.623 325.148 10.8574 324.147 10.8574 322.509C10.8574 321.425 10.8752 320.5 11.1182 319.771C11.3815 318.981 11.8988 318.438 12.7832 318.089C13.6237 317.758 14.8103 317.596 16.4521 317.509C18.1058 317.422 20.281 317.412 23.1289 317.412C28.2939 317.412 31.3041 317.27 33.3193 316.716C34.3108 316.444 35.0473 316.075 35.6738 315.58C36.3049 315.081 36.8467 314.436 37.4307 313.583L37.4355 313.576C39.4061 310.799 40.2808 307.964 40.1494 305.314C40.0182 302.667 38.8817 300.16 36.7539 298.032C35.3412 296.619 33.9505 295.751 31.7979 295.246C29.6122 294.733 26.6339 294.592 22.0391 294.684H22.04C18.8248 294.776 15.5669 294.913 12.9092 295.096C11.5799 295.188 10.4052 295.291 9.46289 295.405C8.50737 295.52 7.82909 295.642 7.46875 295.762L7.4541 295.767L7.43945 295.771C6.81705 295.937 6.3697 296.18 6.01562 296.611C5.64981 297.056 5.34431 297.747 5.11035 298.883C4.6399 301.169 4.5 305.022 4.5 311.658C4.5 315.198 4.52265 317.925 4.6084 320.026C4.69442 322.133 4.84334 323.581 5.08398 324.577C5.32466 325.572 5.63808 326.033 5.98926 326.273C6.35423 326.523 6.86158 326.608 7.67871 326.608ZM31.1309 310.625C28.8837 312.115 25.259 312.804 20.707 312.525L20.7021 312.524C18.7734 312.386 17.258 312.259 16.0693 312.068C14.8851 311.878 13.9721 311.618 13.2773 311.185C11.8281 310.283 11.5007 308.739 11.2285 306.38V306.378C11.0934 305.163 10.9785 304.163 11.0703 303.393C11.1178 302.995 11.2235 302.626 11.4297 302.301C11.6387 301.973 11.931 301.722 12.3027 301.533C13.0162 301.169 14.063 301.014 15.501 300.936C16.9575 300.858 18.9049 300.857 21.4736 300.857C25.1565 300.857 27.8289 301.041 29.6846 301.493C31.5314 301.943 32.7005 302.694 33.1572 303.934L33.1592 303.933C33.6976 305.304 33.7867 306.596 33.4238 307.752C33.061 308.909 32.2635 309.874 31.1309 310.625Z" fill="white" stroke="#001C4F"/>
<path d="M59.3643 326.608C66.9096 326.608 71.8289 326.097 74.8535 324.852C76.3507 324.236 77.3504 323.451 77.9824 322.488C78.615 321.523 78.9121 320.328 78.9121 318.831C78.9121 316.58 78.8189 314.873 78.501 313.566C78.1875 312.277 77.6644 311.411 76.8193 310.797C75.9544 310.169 74.6964 309.764 72.8301 309.524C70.968 309.284 68.5592 309.214 65.4336 309.214C60.926 309.214 57.8439 309.032 55.7637 308.583C53.6818 308.133 52.4763 307.389 51.9189 306.163L51.9121 306.147L51.9062 306.131C51.4927 305.029 51.234 304.048 51.3887 303.225C51.5582 302.324 52.1899 301.732 53.21 301.349C54.2046 300.976 55.6491 300.767 57.6201 300.646C59.6027 300.524 62.1684 300.49 65.4336 300.49C68.0984 300.49 70.1782 300.455 71.8008 300.358C73.4291 300.261 74.5672 300.103 75.3613 299.867C76.1497 299.632 76.5421 299.338 76.7578 299.008C76.981 298.667 77.0732 298.202 77.0732 297.495C77.0732 296.735 76.9792 296.257 76.7422 295.914C76.5125 295.581 76.0843 295.287 75.1963 295.059C74.306 294.831 73.0264 294.689 71.1875 294.606C69.3548 294.523 66.9965 294.5 63.9619 294.5C59.0005 294.5 55.4038 294.684 52.8047 295.136C50.1993 295.589 48.6763 296.299 47.7764 297.281L47.7656 297.292L47.7539 297.304L47.3916 297.671C43.7878 301.543 44.4168 307.846 48.7959 310.878H48.7969L48.8027 310.883C50.007 311.743 51.9506 312.461 54.3613 312.961C56.7603 313.459 59.5767 313.733 62.4902 313.733C64.6084 313.733 66.2904 313.767 67.6104 313.86C68.9227 313.953 69.9145 314.106 70.6348 314.359C71.3642 314.615 71.8834 314.998 72.1338 315.589C72.3711 316.15 72.3184 316.794 72.1768 317.458H72.1777C72.0262 318.215 71.7381 318.877 71.1914 319.427C70.6515 319.971 69.8978 320.366 68.8867 320.667C66.8841 321.262 63.6917 321.539 58.6455 321.722C53.9514 321.906 50.9214 322.182 49.0713 322.65C48.1453 322.884 47.5717 323.153 47.2354 323.439C46.9254 323.703 46.8047 323.989 46.8047 324.349C46.8047 324.768 46.9346 325.07 47.2432 325.328C47.5825 325.611 48.1696 325.866 49.1416 326.067C51.0833 326.469 54.2972 326.608 59.3643 326.608Z" fill="white" stroke="#001C4F"/>
<path d="M103.691 326.608C107.786 326.608 110.906 326.504 113.3 326.073C115.685 325.643 117.288 324.9 118.403 323.668C119.526 322.429 120.217 320.629 120.631 317.953C120.993 315.611 121.136 312.651 121.196 308.896L121.217 307.238C121.217 304.251 121.194 301.942 121.108 300.154C121.022 298.358 120.875 297.123 120.638 296.272C120.403 295.429 120.099 295.03 119.748 294.814C119.375 294.584 118.854 294.5 118.039 294.5C117.282 294.5 116.797 294.593 116.442 294.83C116.097 295.06 115.788 295.485 115.528 296.351C115.268 297.22 115.075 298.465 114.915 300.252C114.795 301.588 114.695 303.21 114.594 305.179L114.491 307.266L113.939 320.691L113.92 321.17H92.7275L92.708 320.691L92.1562 307.266C92.0183 304.323 91.8923 302.034 91.7324 300.252C91.572 298.465 91.3797 297.22 91.1191 296.351C90.8594 295.485 90.5516 295.06 90.2061 294.83C89.8509 294.593 89.367 294.5 88.6094 294.5C87.795 294.5 87.2692 294.584 86.8926 294.807C86.5404 295.016 86.2402 295.395 86.0078 296.187C85.7723 296.99 85.6249 298.154 85.5391 299.845C85.4536 301.53 85.4307 303.703 85.4307 306.507C85.4307 311.011 85.5692 314.516 86.0273 317.248C86.4852 319.978 87.2546 321.884 88.4746 323.232C89.6895 324.575 91.405 325.424 93.8779 325.934C96.3593 326.446 99.5573 326.608 103.691 326.608Z" fill="white" stroke="#001C4F"/>
</g>
<defs>
<filter id="filter0_d_66_246" x="170" y="11.4749" width="459.734" height="269.736" filterUnits="userSpaceOnUse" color-interpolation-filters="sRGB">
<feFlood flood-opacity="0" result="BackgroundImageFix"/>
<feColorMatrix in="SourceAlpha" type="matrix" values="0 0 0 0 0 0 0 0 0 0 0 0 0 0 0 0 0 0 127 0" result="hardAlpha"/>
<feOffset dy="10"/>
<feGaussianBlur stdDeviation="2"/>
<feComposite in2="hardAlpha" operator="out"/>
<feColorMatrix type="matrix" values="0 0 0 0 0 0 0 0 0 0.164706 0 0 0 0 0.447059 0 0 0 0.5 0"/>
<feBlend mode="normal" in2="BackgroundImageFix" result="effect1_dropShadow_66_246"/>
<feBlend mode="normal" in="SourceGraphic" in2="effect1_dropShadow_66_246" result="shape"/>
</filter>
<filter id="filter1_d_66_246" x="200.479" y="115.751" width="389.654" height="230.062" filterUnits="userSpaceOnUse" color-interpolation-filters="sRGB">
<feFlood flood-opacity="0" result="BackgroundImageFix"/>
<feColorMatrix in="SourceAlpha" type="matrix" values="0 0 0 0 0 0 0 0 0 0 0 0 0 0 0 0 0 0 127 0" result="hardAlpha"/>
<feOffset dy="10"/>
<feGaussianBlur stdDeviation="2"/>
<feComposite in2="hardAlpha" operator="out"/>
<feColorMatrix type="matrix" values="0 0 0 0 0.988235 0 0 0 0 0.701961 0 0 0 0 0 0 0 0 0.5 0"/>
<feBlend mode="normal" in2="BackgroundImageFix" result="effect1_dropShadow_66_246"/>
<feBlend mode="normal" in="SourceGraphic" in2="effect1_dropShadow_66_246" result="shape"/>
</filter>
<filter id="filter2_d_66_246" x="170" y="11.4749" width="459.734" height="269.736" filterUnits="userSpaceOnUse" color-interpolation-filters="sRGB">
<feFlood flood-opacity="0" result="BackgroundImageFix"/>
<feColorMatrix in="SourceAlpha" type="matrix" values="0 0 0 0 0 0 0 0 0 0 0 0 0 0 0 0 0 0 127 0" result="hardAlpha"/>
<feOffset dy="10"/>
<feGaussianBlur stdDeviation="2"/>
<feComposite in2="hardAlpha" operator="out"/>
<feColorMatrix type="matrix" values="0 0 0 0 0 0 0 0 0 0.164706 0 0 0 0 0.447059 0 0 0 0.5 0"/>
<feBlend mode="normal" in2="BackgroundImageFix" result="effect1_dropShadow_66_246"/>
<feBlend mode="normal" in="SourceGraphic" in2="effect1_dropShadow_66_246" result="shape"/>
</filter>
<filter id="filter3_d_66_246" x="200.479" y="115.751" width="389.654" height="230.062" filterUnits="userSpaceOnUse" color-interpolation-filters="sRGB">
<feFlood flood-opacity="0" result="BackgroundImageFix"/>
<feColorMatrix in="SourceAlpha" type="matrix" values="0 0 0 0 0 0 0 0 0 0 0 0 0 0 0 0 0 0 127 0" result="hardAlpha"/>
<feOffset dy="10"/>
<feGaussianBlur stdDeviation="2"/>
<feComposite in2="hardAlpha" operator="out"/>
<feColorMatrix type="matrix" values="0 0 0 0 0.988235 0 0 0 0 0.701961 0 0 0 0 0 0 0 0 0.5 0"/>
<feBlend mode="normal" in2="BackgroundImageFix" result="effect1_dropShadow_66_246"/>
<feBlend mode="normal" in="SourceGraphic" in2="effect1_dropShadow_66_246" result="shape"/>
</filter>
<filter id="filter4_d_66_246" x="22" y="349.102" width="284.174" height="82.7004" filterUnits="userSpaceOnUse" color-interpolation-filters="sRGB">
<feFlood flood-opacity="0" result="BackgroundImageFix"/>
<feColorMatrix in="SourceAlpha" type="matrix" values="0 0 0 0 0 0 0 0 0 0 0 0 0 0 0 0 0 0 127 0" result="hardAlpha"/>
<feOffset dy="4"/>
<feGaussianBlur stdDeviation="2"/>
<feComposite in2="hardAlpha" operator="out"/>
<feColorMatrix type="matrix" values="0 0 0 0 0 0 0 0 0 0.247059 0 0 0 0 0.670588 0 0 0 0.75 0"/>
<feBlend mode="normal" in2="BackgroundImageFix" result="effect1_dropShadow_66_246"/>
<feBlend mode="normal" in="SourceGraphic" in2="effect1_dropShadow_66_246" result="shape"/>
</filter>
<filter id="filter5_d_66_246" x="307.069" y="345.108" width="322.931" height="108" filterUnits="userSpaceOnUse" color-interpolation-filters="sRGB">
<feFlood flood-opacity="0" result="BackgroundImageFix"/>
<feColorMatrix in="SourceAlpha" type="matrix" values="0 0 0 0 0 0 0 0 0 0 0 0 0 0 0 0 0 0 127 0" result="hardAlpha"/>
<feOffset dy="4"/>
<feGaussianBlur stdDeviation="2"/>
<feComposite in2="hardAlpha" operator="out"/>
<feColorMatrix type="matrix" values="0 0 0 0 0.976471 0 0 0 0 0.694118 0 0 0 0 0.00392157 0 0 0 0.75 0"/>
<feBlend mode="normal" in2="BackgroundImageFix" result="effect1_dropShadow_66_246"/>
<feBlend mode="normal" in="SourceGraphic" in2="effect1_dropShadow_66_246" result="shape"/>
</filter>
<filter id="filter6_d_66_246" x="0" y="294" width="125.717" height="41.1079" filterUnits="userSpaceOnUse" color-interpolation-filters="sRGB">
<feFlood flood-opacity="0" result="BackgroundImageFix"/>
<feColorMatrix in="SourceAlpha" type="matrix" values="0 0 0 0 0 0 0 0 0 0 0 0 0 0 0 0 0 0 127 0" result="hardAlpha"/>
<feOffset dy="4"/>
<feGaussianBlur stdDeviation="2"/>
<feComposite in2="hardAlpha" operator="out"/>
<feColorMatrix type="matrix" values="0 0 0 0 0.00392157 0 0 0 0 0.184314 0 0 0 0 0.498039 0 0 0 0.5 0"/>
<feBlend mode="normal" in2="BackgroundImageFix" result="effect1_dropShadow_66_246"/>
<feBlend mode="normal" in="SourceGraphic" in2="effect1_dropShadow_66_246" result="shape"/>
</filter>
<linearGradient id="paint0_linear_66_246" x1="533" y1="137.5" x2="276.936" y2="290.246" gradientUnits="userSpaceOnUse">
<stop stop-color="#FFCC00"/>
<stop offset="1" stop-color="#DB9C00"/>
</linearGradient>
<linearGradient id="paint1_linear_66_246" x1="533" y1="137.5" x2="276.936" y2="290.246" gradientUnits="userSpaceOnUse">
<stop stop-color="#FFCC00"/>
<stop offset="1" stop-color="#DB9C00"/>
</linearGradient>
<linearGradient id="paint2_linear_66_246" x1="408.399" y1="344.362" x2="408.574" y2="359.007" gradientUnits="userSpaceOnUse">
<stop stop-color="#FFB601"/>
<stop offset="1" stop-color="#B17C0C"/>
</linearGradient>
<linearGradient id="paint3_linear_66_246" x1="539.346" y1="342.261" x2="540.698" y2="426.342" gradientUnits="userSpaceOnUse">
<stop stop-color="#FFB601"/>
<stop offset="1" stop-color="#B17C0C"/>
</linearGradient>
<linearGradient id="paint4_linear_66_246" x1="348.744" y1="344.921" x2="349.876" y2="426.931" gradientUnits="userSpaceOnUse">
<stop stop-color="#FFB601"/>
<stop offset="1" stop-color="#B17C0C"/>
</linearGradient>
<linearGradient id="paint5_linear_66_246" x1="602.746" y1="347.718" x2="604.554" y2="427.067" gradientUnits="userSpaceOnUse">
<stop stop-color="#FFB601"/>
<stop offset="1" stop-color="#B17C0C"/>
</linearGradient>
<linearGradient id="paint6_linear_66_246" x1="408.372" y1="363.202" x2="411.601" y2="426.02" gradientUnits="userSpaceOnUse">
<stop stop-color="#FFB601"/>
<stop offset="1" stop-color="#B17C0C"/>
</linearGradient>
<linearGradient id="paint7_linear_66_246" x1="459.916" y1="361.999" x2="461.379" y2="448.541" gradientUnits="userSpaceOnUse">
<stop stop-color="#FFB601"/>
<stop offset="1" stop-color="#B17C0C"/>
</linearGradient>
</defs>
</svg>
